<svg width="25" height="25" viewBox="0 0 25 25" fill="none" xmlns="http://www.w3.org/2000/svg">
<path fill-rule="evenodd" clip-rule="evenodd" d="M1 18.7881H2.74509V13.0481C2.74509 11.1632 3.48164 10.3372 4.31322 10.3372C5.13128 10.3372 5.77197 11.1848 5.77197 12.9208V18.7881H7.51706V12.3704C7.51706 9.59582 6.48066 7.98582 4.85846 7.98582C3.83598 7.98582 3.2633 8.62218 2.85406 9.44755H2.74509L2.59516 8.19836H1V18.7881ZM14.1968 11.65V11.5234C14.7969 11.0575 15.397 10.2525 15.397 8.66418C15.3966 6.37645 14.1824 5 12.5057 5C10.7877 5 9.56038 6.46173 9.56038 8.70618C9.56038 10.2315 10.1335 11.0575 10.7606 11.5234V11.6506C10.3081 11.9051 9.9179 12.3724 9.64421 12.9873C9.37052 13.6022 9.22695 14.3344 9.23348 15.0819C9.23389 17.39 10.4608 19 12.4922 19C14.5241 19 15.71 17.39 15.71 15.0819C15.71 13.1754 14.8919 12.0528 14.1968 11.6506V11.65ZM12.4926 6.94855C13.1743 6.94855 13.6786 7.62627 13.6786 8.76982C13.6786 9.914 13.1604 10.5917 12.4922 10.5917C11.8245 10.5917 11.2653 9.914 11.2653 8.76982C11.2653 7.60527 11.7975 6.94855 12.4926 6.94855ZM12.4926 16.9668C11.7016 16.9668 11.0609 16.1828 11.0609 14.8484C11.0609 13.6412 11.5926 12.7305 12.4783 12.7305C13.3517 12.7305 13.8834 13.6202 13.8834 14.891C13.8834 16.1828 13.2701 16.9668 12.4926 16.9668ZM17.4829 18.7881H19.228V13.0481C19.228 11.1632 19.9642 10.3372 20.7962 10.3372C21.6142 10.3372 22.2545 11.1848 22.2545 12.9208V18.7881H24V12.3704C24 9.59582 22.9636 7.98582 21.3414 7.98582C20.3189 7.98582 19.7462 8.62218 19.337 9.44755H19.228L19.0781 8.19836H17.4829V18.7881Z" fill="white"/>
</svg>
