<svg width="25" height="25" viewBox="0 0 25 24" fill="none" xmlns="http://www.w3.org/2000/svg">
<path d="M3.6333 2.99146H21.6333V20.9915H3.6333V2.99146ZM14.3433 17.8515C14.8433 18.8315 15.8533 19.5815 17.4333 19.5815C19.0333 19.5815 20.2333 18.7515 20.2333 17.2215C20.2333 15.8115 19.4233 15.1815 17.9833 14.5615L17.5633 14.3815C16.8333 14.0715 16.5233 13.8615 16.5233 13.3615C16.5233 12.9515 16.8333 12.6315 17.3333 12.6315C17.8133 12.6315 18.1333 12.8415 18.4233 13.3615L19.7333 12.4915C19.1833 11.5315 18.4033 11.1615 17.3333 11.1615C15.8233 11.1615 14.8533 12.1215 14.8533 13.3915C14.8533 14.7715 15.6633 15.4215 16.8833 15.9415L17.3033 16.1215C18.0833 16.4615 18.5433 16.6715 18.5433 17.2515C18.5433 17.7315 18.0933 18.0815 17.3933 18.0815C16.5633 18.0815 16.0833 17.6515 15.7233 17.0515L14.3433 17.8515ZM13.6333 11.2415H8.6333V12.7415H10.1333V19.9915H11.8833V12.7415H13.6333V11.2415Z" fill="white"/>
</svg>
