<svg width="21" height="21" viewBox="0 0 21 21" fill="none" xmlns="http://www.w3.org/2000/svg">
<path d="M10.5 0.5C9.18678 0.5 7.88642 0.758658 6.67317 1.2612C5.45991 1.76375 4.35752 2.50035 3.42893 3.42893C1.55357 5.3043 0.5 7.84784 0.5 10.5C0.5 14.92 3.37 18.67 7.34 20C7.84 20.08 8 19.77 8 19.5C8 19.27 8 18.64 8 17.81C5.23 18.41 4.64 16.47 4.64 16.47C4.18 15.31 3.53 15 3.53 15C2.62 14.38 3.6 14.4 3.6 14.4C4.6 14.47 5.13 15.43 5.13 15.43C6 16.95 7.47 16.5 8.04 16.26C8.13 15.61 8.39 15.17 8.67 14.92C6.45 14.67 4.12 13.81 4.12 10C4.12 8.89 4.5 8 5.15 7.29C5.05 7.04 4.7 6 5.25 4.65C5.25 4.65 6.09 4.38 8 5.67C8.79 5.45 9.65 5.34 10.5 5.34C11.35 5.34 12.21 5.45 13 5.67C14.91 4.38 15.75 4.65 15.75 4.65C16.3 6 15.95 7.04 15.85 7.29C16.5 8 16.88 8.89 16.88 10C16.88 13.82 14.54 14.66 12.31 14.91C12.67 15.22 13 15.83 13 16.76C13 18.1 13 19.18 13 19.5C13 19.77 13.16 20.09 13.67 20C17.64 18.66 20.5 14.92 20.5 10.5C20.5 9.18678 20.2413 7.88642 19.7388 6.67317C19.2362 5.45991 18.4997 4.35752 17.5711 3.42893C16.6425 2.50035 15.5401 1.76375 14.3268 1.2612C13.1136 0.758658 11.8132 0.5 10.5 0.5Z" fill="white"/>
</svg>
