<svg xmlns="http://www.w3.org/2000/svg" width="18" height="18" fill="none" viewBox="0 0 18 18">
  <g clip-path="url(#a)">
    <path fill="#020202" d="M9.232.563a7.862 7.862 0 0 0-7.865 7.864 7.84 7.84 0 0 0 1.54 4.676L.903 17.438l.524-.243 4.036-1.863a7.864 7.864 0 0 0 11.63-6.905A7.86 7.86 0 0 0 9.232.562Zm4.194 11.221a1.54 1.54 0 0 1-.278.609 1.541 1.541 0 0 1-.636.499 1.54 1.54 0 0 1-.798.112 5.281 5.281 0 0 1-2.081-.703c-.735-.436-1.723-1.114-2.468-2.085-.795-.931-1.227-2.021-1.502-2.833a5.33 5.33 0 0 1-.253-2.18c.025-.278.123-.538.278-.76a1.56 1.56 0 0 1 1.276-.66c.317 0 .703-.004.97.186.415.292.591.869.591 1.375 0 .045-.003.095-.007.14-.024.278-.05.52-.207.742-.155.222-.44.415-.693.535.194 1.04.528 1.814.988 2.313.197.274.464.534.805.777.341.242.753.464 1.241.668.169-.222.418-.46.668-.566.246-.106.492-.081.766-.046.046.007.095.014.141.025.492.105 1.02.397 1.22.864.127.303.046.679-.021.988Z"/>
  </g>
  <defs>
    <clipPath id="a">
      <path fill="#fff" d="M0 0h18v18H0z"/>
    </clipPath>
  </defs>
</svg>
